<?xml version="1.0" standalone="no"?>
<!DOCTYPE svg PUBLIC "-//W3C//DTD SVG 20010904//EN"
 "http://www.w3.org/TR/2001/REC-SVG-20010904/DTD/svg10.dtd">
<svg version="1.0" xmlns="http://www.w3.org/2000/svg"
 width="200.000000pt" height="200.000000pt" viewBox="0 0 200.000000 200.000000"
 preserveAspectRatio="xMidYMid meet">
<metadata>
Created by potrace 1.10, written by Peter Selinger 2001-2011
</metadata>
<g transform="translate(0.000000,200.000000) scale(0.100000,-0.100000)"
fill="#000000" stroke="none">
<path d="M1091 1795 c-2 -36 -58 -139 -95 -175 -20 -19 -55 -42 -77 -50 l-41
-16 39 -12 c56 -17 118 -74 147 -137 28 -58 35 -101 14 -89 -7 4 -26 9 -43 11
-46 5 -131 50 -161 86 -24 28 -44 67 -72 137 -10 25 -10 25 -74 -40 -43 -44
-72 -84 -88 -122 -13 -32 -27 -58 -32 -58 -4 0 -17 9 -28 20 -20 20 -20 20
-34 -3 -32 -48 -66 -140 -76 -204 -26 -161 27 -306 167 -456 81 -87 97 -113
108 -174 3 -23 14 -48 22 -55 22 -18 399 -22 433 -5 16 8 27 25 32 50 9 45 46
100 119 177 108 115 149 205 157 341 7 126 -32 243 -110 333 l-35 40 -24 -49
c-13 -26 -40 -66 -60 -88 l-36 -41 -36 36 c-20 20 -51 42 -70 49 -31 11 -34
15 -27 38 27 88 93 170 157 193 41 15 42 24 4 31 -62 13 -142 111 -167 206 -7
25 -13 37 -13 26z m19 -126 c0 -15 45 -66 90 -103 l24 -19 -25 -18 c-40 -31
-78 -72 -76 -83 5 -29 -35 -5 -72 42 -23 28 -46 52 -51 52 -20 0 -9 30 23 63
49 51 66 75 59 82 -4 3 1 3 11 -1 9 -3 17 -10 17 -15z m-286 -239 c40 -88 168
-187 235 -182 13 1 29 -2 35 -7 6 -4 18 -8 27 -8 9 0 46 -12 83 -28 78 -33 78
-33 126 63 17 34 34 62 37 62 13 0 55 -54 73 -95 23 -52 42 -159 36 -210 -12
-105 -53 -221 -83 -232 -7 -3 -11 -9 -8 -13 3 -4 -17 -30 -43 -58 -75 -79
-112 -129 -137 -186 -25 -57 -44 -67 -122 -61 -18 1 -33 -1 -33 -4 0 -7 -189
5 -227 14 -23 5 -54 56 -67 107 -3 15 -39 61 -79 102 -90 94 -132 149 -137
181 -1 6 -9 26 -17 45 -34 80 -36 158 -9 290 8 39 66 137 66 111 0 -6 6 -11
13 -11 7 0 46 -34 87 -76 41 -41 84 -80 95 -86 11 -6 -17 27 -62 73 l-82 84
21 40 c11 22 26 43 32 47 6 4 7 10 4 14 -10 10 11 46 22 39 6 -3 7 1 4 9 -3 9
-1 16 4 16 6 0 23 12 38 27 l27 27 10 -24 c6 -14 19 -45 31 -70z"/>
<path d="M831 1106 c54 -37 109 -58 164 -62 l50 -4 -40 15 c-22 8 -51 15 -65
15 -14 0 -47 14 -75 30 -60 36 -84 40 -34 6z"/>
<path d="M907 1446 c-3 -8 0 -20 8 -26 10 -8 14 -8 18 2 10 29 -15 52 -26 24z"/>
<path d="M1221 1412 c-1 -7 -13 -24 -27 -37 -15 -14 -22 -25 -15 -25 6 0 19
-13 29 -29 l18 -30 26 33 c24 31 25 34 10 48 -9 8 -22 24 -29 34 -7 11 -12 14
-12 6z"/>
<path d="M760 392 c1 -36 31 -100 68 -140 57 -63 168 -85 254 -49 65 27 122
105 135 182 l5 34 -38 -7 c-51 -9 -316 -9 -376 0 -47 8 -48 7 -48 -20z m417
-27 c3 -9 0 -22 -7 -30 -7 -8 -10 -15 -7 -15 4 0 -12 -19 -34 -42 -23 -24 -49
-42 -60 -42 -10 1 -19 -2 -19 -6 0 -5 -28 -8 -62 -8 -53 1 -70 5 -106 30 -26
18 -41 35 -38 43 3 10 0 12 -11 8 -10 -4 -14 -2 -9 5 3 6 2 13 -4 17 -5 3 -10
15 -10 25 0 18 10 20 143 22 78 2 159 4 180 5 26 2 40 -2 44 -12z"/>
</g>
</svg>
